<?xml version="1.0" encoding="utf-8"?>
<!-- Generator: Adobe Illustrator 24.1.1, SVG Export Plug-In . SVG Version: 6.00 Build 0)  -->
<svg version="1.1" id="Layer_1" xmlns="http://www.w3.org/2000/svg" xmlns:xlink="http://www.w3.org/1999/xlink" x="0px" y="0px"
	 viewBox="0 0 512 512" style="enable-background:new 0 0 512 512;" xml:space="preserve">
<style type="text/css">
	.st0{fill:#56B3B4;}
	.st1{fill:#EA5E5E;}
	.st2{fill:#BF85BF;}
	.st3{fill:#F7BA3E;}
	.st4{fill:#E7E9EB;}
</style>
<g>
	<path class="st0" d="M375.7,97.5h28.8c5.5,0,10,4.5,10,10v4.4c0,5.5-4.5,10-10,10h-28.8c-5.5,0-10-4.5-10-10v-4.4
		C365.7,102,370.2,97.5,375.7,97.5z"/>
	<path class="st1" d="M10,487.6h126.3c5.5,0,10,4.5,10,10v4.4c0,5.5-4.5,10-10,10H10c-5.5,0-10-4.5-10-10v-4.4
		C0,492.1,4.5,487.6,10,487.6z"/>
	<path class="st2" d="M302.6,292.6h77.5c5.5,0,10,4.5,10,10v4.4c0,5.5-4.5,10-10,10h-77.5c-5.5,0-10-4.5-10-10v-4.4
		C292.6,297,297,292.6,302.6,292.6z"/>
	<path class="st1" d="M156.3,292.6h101.9c5.5,0,10,4.5,10,10v4.4c0,5.5-4.5,10-10,10H156.3c-5.5,0-10-4.5-10-10v-4.4
		C146.3,297,150.8,292.6,156.3,292.6z"/>
	<path class="st0" d="M10,292.6h101.9c5.5,0,10,4.5,10,10v4.4c0,5.5-4.5,10-10,10H10c-5.5,0-10-4.5-10-10v-4.4
		C0,297,4.5,292.6,10,292.6z"/>
	<path class="st2" d="M10,390.1h126.3c5.5,0,10,4.5,10,10v4.4c0,5.5-4.5,10-10,10H10c-5.5,0-10-4.5-10-10v-4.4
		C0,394.6,4.5,390.1,10,390.1z"/>
	<path class="st2" d="M10,195h126.3c5.5,0,10,4.5,10,10v4.4c0,5.5-4.5,10-10,10H10c-5.5,0-10-4.5-10-10V205C0,199.5,4.5,195,10,195z
		"/>
	<path class="st3" d="M131.9,48.8h248.2c5.5,0,10,4.5,10,10v4.4c0,5.5-4.5,10-10,10H131.9c-5.5,0-10-4.5-10-10v-4.4
		C121.9,53.2,126.4,48.8,131.9,48.8z"/>
	<path class="st1" d="M10,48.8h77.5c5.5,0,10,4.5,10,10v4.4c0,5.5-4.5,10-10,10H10c-5.5,0-10-4.5-10-10v-4.4
		C0,53.2,4.5,48.8,10,48.8z"/>
	<path class="st3" d="M107.5,438.9h28.8c5.5,0,10,4.5,10,10v4.4c0,5.5-4.5,10-10,10h-28.8c-5.5,0-10-4.5-10-10v-4.4
		C97.5,443.3,102,438.9,107.5,438.9z"/>
	<path class="st0" d="M107.5,146.3h28.8c5.5,0,10,4.5,10,10v4.4c0,5.5-4.5,10-10,10h-28.8c-5.5,0-10-4.5-10-10v-4.4
		C97.5,150.8,102,146.3,107.5,146.3z"/>
	<path class="st0" d="M10,438.9h53.1c5.5,0,10,4.5,10,10v4.4c0,5.5-4.5,10-10,10H10c-5.5,0-10-4.5-10-10v-4.4
		C0,443.3,4.5,438.9,10,438.9z"/>
	<path class="st3" d="M10,146.3h53.1c5.5,0,10,4.5,10,10v4.4c0,5.5-4.5,10-10,10H10c-5.5,0-10-4.5-10-10v-4.4
		C0,150.8,4.5,146.3,10,146.3z"/>
	<path class="st4" d="M355.7,438.9H327c-5.5,0-10,4.5-10,10v4.4c0,5.5,4.5,10,10,10h28.8c5.5,0,10-4.5,10-10v-4.4
		C365.7,443.3,361.2,438.9,355.7,438.9"/>
	<path class="st4" d="M282.6,438.9H180.7c-5.5,0-10,4.5-10,10v4.4c0,5.5,4.5,10,10,10h101.9c5.5,0,10-4.5,10-10v-4.4
		C292.6,443.3,288.1,438.9,282.6,438.9"/>
	<path class="st4" d="M502,438.9H400.1c-5.5,0-10,4.5-10,10v4.4c0,5.5,4.5,10,10,10H502c5.5,0,10-4.5,10-10v-4.4
		C512,443.3,507.5,438.9,502,438.9"/>
	<path class="st0" d="M205,243.8h199.4c5.5,0,10,4.5,10,10v4.4c0,5.5-4.5,10-10,10H205c-5.5,0-10-4.5-10-10v-4.4
		C195,248.3,199.5,243.8,205,243.8z"/>
	<path class="st3" d="M83.1,243.8h77.5c5.5,0,10,4.5,10,10v4.4c0,5.5-4.5,10-10,10H83.1c-5.5,0-10-4.5-10-10v-4.4
		C73.1,248.3,77.6,243.8,83.1,243.8z"/>
	<path class="st1" d="M10,243.8h28.8c5.5,0,10,4.5,10,10v4.4c0,5.5-4.5,10-10,10H10c-5.5,0-10-4.5-10-10v-4.4
		C0,248.3,4.5,243.8,10,243.8z"/>
	<path class="st2" d="M229.4,97.5h101.9c5.5,0,10,4.5,10,10v4.4c0,5.5-4.5,10-10,10H229.4c-5.5,0-10-4.5-10-10v-4.4
		C219.4,102,223.9,97.5,229.4,97.5z"/>
	<path class="st0" d="M10,97.5h175c5.5,0,10,4.5,10,10v4.4c0,5.5-4.5,10-10,10H10c-5.5,0-10-4.5-10-10v-4.4C0,102,4.5,97.5,10,97.5z
		"/>
	<path class="st3" d="M83.1,341.3H307c5.5,0,10,4.5,10,10v4.4c0,5.5-4.5,10-10,10H83.1c-5.5,0-10-4.5-10-10v-4.4
		C73.1,345.8,77.6,341.3,83.1,341.3z"/>
	<path class="st2" d="M10,341.3h28.8c5.5,0,10,4.5,10,10v4.4c0,5.5-4.5,10-10,10H10c-5.5,0-10-4.5-10-10v-4.4
		C0,345.8,4.5,341.3,10,341.3z"/>
	<path class="st1" d="M302.6,146.3h126.3c5.5,0,10,4.5,10,10v4.4c0,5.5-4.5,10-10,10H302.6c-5.5,0-10-4.5-10-10v-4.4
		C292.6,150.8,297,146.3,302.6,146.3z"/>
	<path class="st3" d="M302.6,195h126.3c5.5,0,10,4.5,10,10v4.4c0,5.5-4.5,10-10,10H302.6c-5.5,0-10-4.5-10-10V205
		C292.6,199.5,297,195,302.6,195z"/>
	<path class="st0" d="M10,0h297c5.5,0,10,4.5,10,10v4.4c0,5.5-4.5,10-10,10H10c-5.5,0-10-4.5-10-10V10C0,4.5,4.5,0,10,0z"/>
	<path class="st4" d="M502,0H351.3c-5.5,0-10,4.5-10,10v4.4c0,5.5,4.5,10,10,10H502c5.5,0,10-4.5,10-10V10C512,4.5,507.5,0,502,0"/>
	<path class="st4" d="M404.5,341.3h-53.1c-5.5,0-10,4.5-10,10v4.4c0,5.5,4.5,10,10,10h53.1c5.5,0,10-4.5,10-10v-4.4
		C414.5,345.8,410,341.3,404.5,341.3"/>
	<path class="st4" d="M502,341.3h-53.1c-5.5,0-10,4.5-10,10v4.4c0,5.5,4.5,10,10,10H502c5.5,0,10-4.5,10-10v-4.4
		C512,345.8,507.5,341.3,502,341.3"/>
	<path class="st4" d="M502,292.6h-77.5c-5.5,0-10,4.5-10,10v4.4c0,5.5,4.5,10,10,10H502c5.5,0,10-4.5,10-10v-4.4
		C512,297,507.5,292.6,502,292.6"/>
	<path class="st4" d="M502,48.8h-77.5c-5.5,0-10,4.5-10,10v4.4c0,5.5,4.5,10,10,10H502c5.5,0,10-4.5,10-10v-4.4
		C512,53.2,507.5,48.8,502,48.8"/>
	<path class="st4" d="M502,243.8h-53.1c-5.5,0-10,4.5-10,10v4.4c0,5.5,4.5,10,10,10H502c5.5,0,10-4.5,10-10v-4.4
		C512,248.3,507.5,243.8,502,243.8"/>
	<path class="st4" d="M502,97.5h-53.1c-5.5,0-10,4.5-10,10v4.4c0,5.5,4.5,10,10,10H502c5.5,0,10-4.5,10-10v-4.4
		C512,102,507.5,97.5,502,97.5"/>
	<path class="st4" d="M502,146.3h-28.8c-5.5,0-10,4.5-10,10v4.4c0,5.5,4.5,10,10,10H502c5.5,0,10-4.5,10-10v-4.4
		C512,150.8,507.5,146.3,502,146.3"/>
	<path class="st4" d="M502,195h-28.8c-5.5,0-10,4.5-10,10v4.4c0,5.5,4.5,10,10,10H502c5.5,0,10-4.5,10-10V205
		C512,199.5,507.5,195,502,195"/>
	<path class="st4" d="M502,390.1H278.2c-5.5,0-10,4.5-10,10v4.4c0,5.5,4.5,10,10,10H502c5.5,0,10-4.5,10-10v-4.4
		C512,394.6,507.5,390.1,502,390.1"/>
	<path class="st4" d="M233.8,390.1h-53.1c-5.5,0-10,4.5-10,10v4.4c0,5.5,4.5,10,10,10h53.1c5.5,0,10-4.5,10-10v-4.4
		C243.8,394.6,239.3,390.1,233.8,390.1"/>
	<path class="st4" d="M502,487.6H375.7c-5.5,0-10,4.5-10,10v4.4c0,5.5,4.5,10,10,10H502c5.5,0,10-4.5,10-10v-4.4
		C512,492.1,507.5,487.6,502,487.6"/>
	<path class="st4" d="M331.3,487.6H180.7c-5.5,0-10,4.5-10,10v4.4c0,5.5,4.5,10,10,10h150.7c5.5,0,10-4.5,10-10v-4.4
		C341.3,492.1,336.9,487.6,331.3,487.6"/>
	<path class="st4" d="M258.2,146.3h-77.5c-5.5,0-10,4.5-10,10v4.4c0,5.5,4.5,10,10,10h77.5c5.5,0,10-4.5,10-10v-4.4
		C268.2,150.8,263.7,146.3,258.2,146.3"/>
	<path class="st4" d="M258.2,195h-77.5c-5.5,0-10,4.5-10,10v4.4c0,5.5,4.5,10,10,10h77.5c5.5,0,10-4.5,10-10V205
		C268.2,199.5,263.7,195,258.2,195"/>
</g>
</svg>
